<?xml version="1.0" encoding="UTF-8" standalone="no"?>
<svg
   xmlns:dc="http://purl.org/dc/elements/1.1/"
   xmlns:cc="http://creativecommons.org/ns#"
   xmlns:rdf="http://www.w3.org/1999/02/22-rdf-syntax-ns#"
   xmlns:svg="http://www.w3.org/2000/svg"
   xmlns="http://www.w3.org/2000/svg"
   xmlns:sodipodi="http://sodipodi.sourceforge.net/DTD/sodipodi-0.dtd"
   xmlns:inkscape="http://www.inkscape.org/namespaces/inkscape"
   viewBox="0 0 512 512"
   version="1.1"
   id="svg4"
   sodipodi:docname="music-solid.svg"
   inkscape:version="0.92.5 (2060ec1f9f, 2020-04-08)">
  <metadata
     id="metadata10">
    <rdf:RDF>
      <cc:Work
         rdf:about="">
        <dc:format>image/svg+xml</dc:format>
        <dc:type
           rdf:resource="http://purl.org/dc/dcmitype/StillImage" />
      </cc:Work>
    </rdf:RDF>
  </metadata>
  <defs
     id="defs8" />
  <sodipodi:namedview
     pagecolor="#ffffff"
     bordercolor="#666666"
     borderopacity="1"
     objecttolerance="10"
     gridtolerance="10"
     guidetolerance="10"
     inkscape:pageopacity="0"
     inkscape:pageshadow="2"
     inkscape:window-width="1920"
     inkscape:window-height="997"
     id="namedview6"
     showgrid="false"
     inkscape:zoom="0.4609375"
     inkscape:cx="256"
     inkscape:cy="256"
     inkscape:window-x="0"
     inkscape:window-y="28"
     inkscape:window-maximized="1"
     inkscape:current-layer="svg4" />
  <!--! Font Awesome Pro 6.1.1 by @fontawesome - https://fontawesome.com License - https://fontawesome.com/license (Commercial License) Copyright 2022 Fonticons, Inc. -->
  <path
     d="M511.1 367.1c0 44.18-42.98 80-95.1 80s-95.1-35.82-95.1-79.1c0-44.18 42.98-79.1 95.1-79.1c11.28 0 21.95 1.92 32.01 4.898V148.1L192 224l-.0023 208.1C191.1 476.2 149 512 95.1 512S0 476.2 0 432c0-44.18 42.98-79.1 95.1-79.1c11.28 0 21.95 1.92 32 4.898V126.5c0-12.97 10.06-26.63 22.41-30.52l319.1-94.49C472.1 .6615 477.3 0 480 0c17.66 0 31.97 14.34 32 31.99L511.1 367.1z"
     id="path2" />
  <path
     style="fill:#ffffff;stroke-width:2.16949153"
     d="M 68.335685,507.88766 C 44.622536,502.30717 20.213682,484.31946 9.4043748,464.45919 0.64812475,448.37107 -0.69689036,425.55201 6.0561503,407.65438 15.020559,383.89591 42.991596,362.30791 72.852662,356.1009 c 11.947199,-2.48339 39.260178,-1.73127 49.832088,1.37221 l 4.88135,1.43295 0.0476,-117.94795 c 0.0449,-111.06319 0.28753,-118.47627 4.1572,-126.99915 2.26024,-4.97817 6.48409,-10.60708 9.38632,-12.50869 5.07027,-3.322166 318.00412,-96.9590626 334.17508,-99.992754 12.31438,-2.31019325 26.02604,5.2938557 32.07396,17.787215 l 4.779,9.872058 -1.60369,175.967201 c -1.53375,168.29322 -1.79224,176.47114 -5.9272,187.52282 -6.22436,16.63611 -23.23641,33.26347 -44.23683,43.23651 -15.29736,7.26469 -18.74045,8.03367 -39.74894,8.87739 -19.51497,0.78372 -25.13801,0.20545 -37.10254,-3.81642 -49.8762,-16.7654 -73.65647,-60.76852 -54.55288,-100.94497 14.56618,-30.63389 48.66219,-49.67628 88.1774,-49.24646 9.54719,0.10392 20.53141,1.15185 24.40938,2.32891 l 7.05085,2.14009 v -73.78364 -73.78365 l -5.9661,1.34462 c -3.28136,0.73954 -61.12543,17.72548 -128.54238,37.74653 l -122.57627,36.40192 -1.08474,112.66313 c -1.08289,112.47037 -1.09346,112.68239 -6.17825,123.92507 -5.81583,12.85903 -25.09833,32.43459 -38.86928,39.46001 -19.85965,10.13163 -54.48584,14.05325 -77.098145,8.73181 z"
     id="path12"
     inkscape:connector-curvature="0" />
</svg>
